HIERARCHY
ROOT Hips
{
	OFFSET 0.000000 209.098373 0.000000
	CHANNELS 6 Xposition Yposition Zposition Xrotation Yrotation Zrotation 
	JOINT Spine
	{
		OFFSET -0.200200 19.804703 -3.890100
		CHANNELS 3 Xrotation Yrotation Zrotation
		JOINT Spine1
		{
			OFFSET -0.126500 17.102631 -1.185233
			CHANNELS 3 Xrotation Yrotation Zrotation
			JOINT Spine1_split
			{
				OFFSET -0.126500 17.102631 -1.185233
				CHANNELS 3 Xrotation Yrotation Zrotation
				JOINT Spine2
				{
					OFFSET -0.126500 17.102631 -1.185233
					CHANNELS 3 Xrotation Yrotation Zrotation
					JOINT Neck
					{
						OFFSET 0.573000 31.061890 3.761700
						CHANNELS 3 Xrotation Yrotation Zrotation
						JOINT Head
						{
							OFFSET 1.041900 22.230988 6.513500
							CHANNELS 3 Xrotation Yrotation Zrotation
							JOINT HeadTop_End
							{
								OFFSET 0.153900 38.312317 10.826400
								CHANNELS 3 Xrotation Yrotation Zrotation
								End Site
								{
									OFFSET 0.000000 0.000000 0.000000
								}
							}
							JOINT RightEye
							{
								OFFSET -6.116900 16.475891 16.457001
								CHANNELS 3 Xrotation Yrotation Zrotation
								End Site
								{
									OFFSET 0.000000 0.000000 0.000000
								}
							}
							JOINT LeftEye
							{
								OFFSET 6.085500 16.736298 16.760401
								CHANNELS 3 Xrotation Yrotation Zrotation
								End Site
								{
									OFFSET 0.000000 0.000000 0.000000
								}
							}
						}
					}
					JOINT LeftShoulder
					{
						OFFSET 6.477050 9.447403 1.339100
						CHANNELS 3 Xrotation Yrotation Zrotation
						JOINT LeftShoulder_split
						{
							OFFSET 6.477050 9.447403 1.339100
							CHANNELS 3 Xrotation Yrotation Zrotation
							JOINT LeftArm
							{
								OFFSET 26.260923 0.774078 -4.054200
								CHANNELS 3 Xrotation Yrotation Zrotation
								JOINT LeftForeArm
								{
									OFFSET 55.127678 0.000000 0.000000
									CHANNELS 3 Xrotation Yrotation Zrotation
									JOINT LeftHand
									{
										OFFSET 52.773346 0.000000 0.000000
										CHANNELS 3 Xrotation Yrotation Zrotation
										JOINT LeftHandMiddle1
										{
											OFFSET 27.744553 0.000000 -0.000001
											CHANNELS 3 Xrotation Yrotation Zrotation
											JOINT LeftHandMiddle2
											{
												OFFSET 6.931656 0.000000 0.000000
												CHANNELS 3 Xrotation Yrotation Zrotation
												JOINT LeftHandMiddle3
												{
													OFFSET 6.823593 0.000000 0.000000
													CHANNELS 3 Xrotation Yrotation Zrotation
													JOINT LeftHandMiddle4
													{
														OFFSET 7.392654 0.000000 0.000000
														CHANNELS 3 Xrotation Yrotation Zrotation
														End Site
														{
															OFFSET 0.000000 0.000000 0.000000
														}
													}
												}
											}
										}
										JOINT LeftHandThumb1
										{
											OFFSET 11.123123 -3.291504 6.128796
											CHANNELS 3 Xrotation Yrotation Zrotation
											JOINT LeftHandThumb2
											{
												OFFSET 8.694336 -5.019684 5.019678
												CHANNELS 3 Xrotation Yrotation Zrotation
												JOINT LeftHandThumb3
												{
													OFFSET 6.936920 -4.005035 4.005031
													CHANNELS 3 Xrotation Yrotation Zrotation
													JOINT LeftHandThumb4
													{
														OFFSET 4.488434 -2.591400 2.591393
														CHANNELS 3 Xrotation Yrotation Zrotation
														End Site
														{
															OFFSET 0.000000 0.000000 0.000000
														}
													}
												}
											}
										}
										JOINT LeftHandIndex1
										{
											OFFSET 28.490189 -0.454712 5.152027
											CHANNELS 3 Xrotation Yrotation Zrotation
											JOINT LeftHandIndex2
											{
												OFFSET 7.062866 0.000000 0.000000
												CHANNELS 3 Xrotation Yrotation Zrotation
												JOINT LeftHandIndex3
												{
													OFFSET 6.495270 0.000000 0.000000
													CHANNELS 3 Xrotation Yrotation Zrotation
													JOINT LeftHandIndex4
													{
														OFFSET 6.593353 0.000000 0.000000
														CHANNELS 3 Xrotation Yrotation Zrotation
														End Site
														{
															OFFSET 0.000000 0.000000 0.000000
														}
													}
												}
											}
										}
										JOINT LeftHandRing1
										{
											OFFSET 25.484116 0.079315 -4.241013
											CHANNELS 3 Xrotation Yrotation Zrotation
											JOINT LeftHandRing2
											{
												OFFSET 6.309830 0.000000 0.000000
												CHANNELS 3 Xrotation Yrotation Zrotation
												JOINT LeftHandRing3
												{
													OFFSET 6.359528 0.000000 0.000000
													CHANNELS 3 Xrotation Yrotation Zrotation
													JOINT LeftHandRing4
													{
														OFFSET 7.037842 0.000000 0.000000
														CHANNELS 3 Xrotation Yrotation Zrotation
														End Site
														{
															OFFSET 0.000000 0.000000 0.000000
														}
													}
												}
											}
										}
										JOINT LeftHandPinky1
										{
											OFFSET 21.905838 -0.440979 -8.780931
											CHANNELS 3 Xrotation Yrotation Zrotation
											JOINT LeftHandPinky2
											{
												OFFSET 6.536652 0.000000 0.000000
												CHANNELS 3 Xrotation Yrotation Zrotation
												JOINT LeftHandPinky3
												{
													OFFSET 4.149078 0.000000 0.000000
													CHANNELS 3 Xrotation Yrotation Zrotation
													JOINT LeftHandPinky4
													{
														OFFSET 5.563492 0.000000 0.000000
														CHANNELS 3 Xrotation Yrotation Zrotation
														End Site
														{
															OFFSET 0.000000 0.000000 0.000000
														}
													}
												}
											}
										}
									}
								}
							}
						}
					}
					JOINT RightShoulder
					{
						OFFSET -6.318650 9.607651 1.090450
						CHANNELS 3 Xrotation Yrotation Zrotation
						JOINT RightShoulder_split
						{
							OFFSET -6.318650 9.607651 1.090450
							CHANNELS 3 Xrotation Yrotation Zrotation
							JOINT RightArm
							{
								OFFSET -26.335392 0.460938 -5.423000
								CHANNELS 3 Xrotation Yrotation Zrotation
								JOINT RightForeArm
								{
									OFFSET -55.842682 0.000000 0.000000
									CHANNELS 3 Xrotation Yrotation Zrotation
									JOINT RightHand
									{
										OFFSET -50.313637 0.000000 0.000000
										CHANNELS 3 Xrotation Yrotation Zrotation
										JOINT RightHandMiddle1
										{
											OFFSET -26.065582 0.000000 0.000000
											CHANNELS 3 Xrotation Yrotation Zrotation
											JOINT RightHandMiddle2
											{
												OFFSET -6.159927 0.000000 0.000000
												CHANNELS 3 Xrotation Yrotation Zrotation
												JOINT RightHandMiddle3
												{
													OFFSET -7.279129 0.000000 0.000000
													CHANNELS 3 Xrotation Yrotation Zrotation
													JOINT RightHandMiddle4
													{
														OFFSET -7.459930 0.000000 0.000000
														CHANNELS 3 Xrotation Yrotation Zrotation
														End Site
														{
															OFFSET 0.000000 0.000000 0.000000
														}
													}
												}
											}
										}
										JOINT RightHandThumb1
										{
											OFFSET -9.501938 -3.930054 6.157043
											CHANNELS 3 Xrotation Yrotation Zrotation
											JOINT RightHandThumb2
											{
												OFFSET -8.016403 -4.628265 4.628269
												CHANNELS 3 Xrotation Yrotation Zrotation
												JOINT RightHandThumb3
												{
													OFFSET -6.641968 -3.834747 3.834738
													CHANNELS 3 Xrotation Yrotation Zrotation
													JOINT RightHandThumb4
													{
														OFFSET -4.755127 -2.745392 2.745377
														CHANNELS 3 Xrotation Yrotation Zrotation
														End Site
														{
															OFFSET 0.000000 0.000000 0.000000
														}
													}
												}
											}
										}
										JOINT RightHandIndex1
										{
											OFFSET -26.603027 -0.546387 5.106654
											CHANNELS 3 Xrotation Yrotation Zrotation
											JOINT RightHandIndex2
											{
												OFFSET -7.092133 0.000000 0.000000
												CHANNELS 3 Xrotation Yrotation Zrotation
												JOINT RightHandIndex3
												{
													OFFSET -7.414383 0.000000 0.000000
													CHANNELS 3 Xrotation Yrotation Zrotation
													JOINT RightHandIndex4
													{
														OFFSET -5.522461 0.000000 0.000000
														CHANNELS 3 Xrotation Yrotation Zrotation
														End Site
														{
															OFFSET 0.000000 0.000000 0.000000
														}
													}
												}
											}
										}
										JOINT RightHandRing1
										{
											OFFSET -24.087204 0.001373 -3.983909
											CHANNELS 3 Xrotation Yrotation Zrotation
											JOINT RightHandRing2
											{
												OFFSET -6.857483 0.000000 0.000000
												CHANNELS 3 Xrotation Yrotation Zrotation
												JOINT RightHandRing3
												{
													OFFSET -6.835510 0.000000 0.000000
													CHANNELS 3 Xrotation Yrotation Zrotation
													JOINT RightHandRing4
													{
														OFFSET -6.017181 0.000000 0.000000
														CHANNELS 3 Xrotation Yrotation Zrotation
														End Site
														{
															OFFSET 0.000000 0.000000 0.000000
														}
													}
												}
											}
										}
										JOINT RightHandPinky1
										{
											OFFSET -20.989380 -0.497772 -8.541121
											CHANNELS 3 Xrotation Yrotation Zrotation
											JOINT RightHandPinky2
											{
												OFFSET -5.939575 0.000000 0.000000
												CHANNELS 3 Xrotation Yrotation Zrotation
												JOINT RightHandPinky3
												{
													OFFSET -3.764755 0.000000 0.000000
													CHANNELS 3 Xrotation Yrotation Zrotation
													JOINT RightHandPinky4
													{
														OFFSET -6.370499 0.000000 0.000000
														CHANNELS 3 Xrotation Yrotation Zrotation
														End Site
														{
															OFFSET 0.000000 0.000000 0.000000
														}
													}
												}
											}
										}
									}
								}
							}
						}
					}
				}
			}
		}
	}
	JOINT LeftUpLeg
	{
		OFFSET 18.528200 -13.833405 2.662400
		CHANNELS 3 Xrotation Yrotation Zrotation
		JOINT LeftLeg
		{
			OFFSET -0.428627 -85.183052 -3.238300
			CHANNELS 3 Xrotation Yrotation Zrotation
			JOINT LeftFoot
			{
				OFFSET 0.428627 -85.416382 -5.126600
				CHANNELS 3 Xrotation Yrotation Zrotation
				JOINT LeftToeBase
				{
					OFFSET 2.692499 -21.394899 24.290701
					CHANNELS 3 Xrotation Yrotation Zrotation
					JOINT LeftToe_End
					{
						OFFSET -0.329500 0.250500 19.060301
						CHANNELS 3 Xrotation Yrotation Zrotation
						End Site
						{
							OFFSET 0.000000 0.000000 0.000000
						}
					}
				}
			}
		}
	}
	JOINT RightUpLeg
	{
		OFFSET -18.436300 -14.416702 0.160500
		CHANNELS 3 Xrotation Yrotation Zrotation
		JOINT RightLeg
		{
			OFFSET 0.571878 -84.751007 -3.366100
			CHANNELS 3 Xrotation Yrotation Zrotation
			JOINT RightFoot
			{
				OFFSET -0.571878 -85.244911 -5.426400
				CHANNELS 3 Xrotation Yrotation Zrotation
				JOINT RightToeBase
				{
					OFFSET -3.153700 -21.491106 24.818199
					CHANNELS 3 Xrotation Yrotation Zrotation
					JOINT RightToe_End
					{
						OFFSET -2.731201 0.224900 19.510799
						CHANNELS 3 Xrotation Yrotation Zrotation
						End Site
						{
							OFFSET 0.000000 0.000000 0.000000
						}
					}
				}
			}
		}
	}
}
MOTION
Frames: 4
Frame Time: 0.016667
0.084543 209.014786 -1.412412 -0.009075 -2.298478 -0.647261 -0.125506 0.568462 -0.804223 -0.246332 1.060944 -0.318801 0.000000 0.000000 0.000000 -0.252560 1.423350 1.775077 8.427590 0.575458 3.798095 -6.886729 -2.488319 -5.541715 -0.000000 -0.000000 -0.000000 -0.000000 -0.000000 -0.000000 -0.000000 -0.000000 -0.000000 -4.811916 -10.638939 -12.165656 0.000000 0.000000 0.000000 16.240366 -28.514341 -68.254757 -0.000009 -9.291175 -0.000006 -11.492962 6.076582 -2.146685 0.445590 4.440656 -20.096237 0.256625 1.716587 -17.004659 0.038510 0.671352 -6.565889 -0.000000 0.000001 -0.000001 -2.875531 3.737117 9.044250 12.467242 25.893403 0.632758 -17.723320 -15.297669 3.814108 -0.000003 -0.000002 -0.000003 0.718545 5.232801 -19.057205 0.227585 1.618590 -16.006227 0.038556 0.671823 -6.570513 -0.000004 -0.000001 0.000001 -1.271365 0.698381 -24.653517 0.393942 2.113807 -21.110899 0.038403 0.670415 -6.556812 0.000002 -0.000001 -0.000001 -3.277279 -3.335850 -25.924009 0.433013 2.212315 -22.146670 0.038334 0.669838 -6.551079 -0.000000 0.000000 0.000001 -2.185719 -0.070488 11.813023 0.000000 0.000000 0.000000 19.535719 39.084938 62.976359 -0.000007 10.825433 -0.000015 -14.441931 0.536945 0.113400 1.068391 -5.657497 22.565739 0.287526 -1.612584 20.217715 0.025323 -0.485498 5.970824 -0.000001 0.000001 -0.000001 -6.843754 -4.630922 -19.349752 11.511893 -15.496904 5.716092 -16.634799 13.067118 -16.094299 -0.000001 -0.000000 -0.000002 1.028582 -6.393226 15.662162 0.131278 -1.099081 13.621655 0.025315 -0.485472 5.970381 -0.000003 -0.000001 0.000002 -1.020117 -1.300722 27.058763 0.416629 -1.927116 24.395916 0.025316 -0.485510 5.970869 0.000003 -0.000000 -0.000001 -2.355159 0.077405 32.964214 0.636195 -2.351627 30.272860 0.025331 -0.485523 5.970921 0.000001 -0.000001 -0.000001 -6.883327 10.903095 2.283624 7.869331 -3.263236 -0.164898 -1.231945 6.128535 -0.097658 -0.000969 0.000002 -0.000000 0.000000 -0.000000 -0.000000 -4.639698 0.639808 1.176698 2.516054 -5.277262 0.064837 2.108938 2.800441 -0.729397 -0.009036 0.000003 -0.000000 -0.000000 0.000000 0.000000 
-0.001243 209.014023 -1.212177 -0.020861 -2.266157 -0.647826 -0.137574 0.554361 -0.813618 -0.257382 1.050271 -0.318801 0.000000 0.000000 0.000000 -0.263596 1.412329 1.775077 8.408465 0.575458 3.798393 -6.991405 -2.479365 -5.566138 0.000000 0.000000 0.000000 0.000000 0.000000 0.000000 0.000000 0.000000 0.000000 -4.806363 -10.644572 -12.106265 0.000000 0.000000 0.000000 16.297987 -28.485922 -68.390083 0.000005 -9.334493 -0.000005 -11.408837 6.258695 -2.251102 0.446824 4.443927 -20.130408 0.257660 1.719942 -17.038776 0.038904 0.674818 -6.599993 0.000000 0.000000 -0.000003 -2.875531 3.737117 9.044251 12.471714 25.926397 0.637743 -17.711048 -15.266473 3.830209 -0.000002 0.000001 0.000001 0.720261 5.235906 -19.091415 0.228550 1.621943 -16.040370 0.038964 0.675301 -6.604609 -0.000004 -0.000000 -0.000000 -1.272349 0.702663 -24.687387 0.395200 2.117078 -21.145274 0.038807 0.673887 -6.590914 -0.000003 0.000001 -0.000000 -3.280620 -3.330444 -25.957449 0.434374 2.215643 -22.181698 0.038738 0.673308 -6.585177 0.000002 -0.000002 0.000002 -2.185605 -0.101711 11.796651 0.000000 0.000000 0.000000 19.568762 39.072213 63.019929 -0.000001 10.877983 0.000006 -14.554643 0.493179 0.103036 1.070422 -5.659668 22.600054 0.288485 -1.615198 20.251945 0.025606 -0.488281 6.004949 0.000002 0.000001 0.000002 -6.843754 -4.630922 -19.349748 11.520344 -15.529610 5.710948 -16.630449 13.033801 -16.105945 -0.000002 0.000000 0.000001 1.031038 -6.395410 15.696504 0.131929 -1.101806 13.655900 0.025602 -0.488232 6.004551 -0.000000 0.000000 -0.000001 -1.020686 -1.304139 27.092748 0.417774 -1.929657 24.430262 0.025609 -0.488271 6.005025 0.000001 -0.000002 -0.000002 -2.356560 0.073209 32.998017 0.637622 -2.354061 30.307431 0.025613 -0.488283 6.005084 -0.000001 0.000001 0.000001 -6.841634 10.930912 2.318945 7.914930 -3.325619 -0.170128 -1.267191 6.128401 -0.121404 -0.036844 -0.000003 0.000000 -0.000000 -0.000000 0.000000 -4.495467 0.612159 1.183933 2.392100 -5.296884 0.089624 2.125406 2.803164 -0.770104 -0.184357 -0.000003 -0.000000 -0.000000 0.000000 0.000000 
-0.082215 209.013763 -1.016685 -0.027821 -2.242105 -0.647806 -0.149014 0.542588 -0.823024 -0.267887 1.041629 -0.318800 0.000000 0.000000 0.000000 -0.274080 1.403396 1.775077 8.386234 0.575458 3.800966 -7.098193 -2.469248 -5.587896 0.000000 -0.000000 0.000000 0.000000 -0.000000 0.000000 0.000000 -0.000000 0.000000 -4.801276 -10.652163 -12.051431 0.000000 0.000000 0.000000 16.362036 -28.448503 -68.506702 0.000001 -9.380449 -0.000004 -11.337172 6.412369 -2.339496 0.448826 4.449164 -20.185263 0.259311 1.725293 -17.093513 0.039558 0.680386 -6.654674 0.000002 0.000001 0.000000 -2.875530 3.737116 9.044249 12.478908 25.979328 0.645621 -17.691419 -15.216434 3.855854 0.000004 0.000000 0.000002 0.723028 5.240884 -19.146347 0.230098 1.627330 -16.095078 0.039609 0.680844 -6.659320 -0.000002 0.000001 -0.000001 -1.273926 0.709505 -24.741720 0.397240 2.122336 -21.200374 0.039451 0.679472 -6.645570 -0.000001 -0.000002 -0.000000 -3.285955 -3.321775 -26.011107 0.436545 2.220956 -22.237841 0.039382 0.678880 -6.639857 -0.000000 -0.000001 0.000005 -2.185048 -0.129351 11.786035 0.000000 0.000000 0.000000 19.592773 39.061924 63.057338 0.000002 10.905504 0.000016 -14.630308 0.473977 0.087257 1.073662 -5.663146 22.655107 0.290035 -1.619395 20.306805 0.026073 -0.492702 6.059745 -0.000001 -0.000001 0.000002 -6.843758 -4.630921 -19.349752 11.533927 -15.582086 5.702905 -16.623502 12.980381 -16.124526 -0.000000 -0.000001 -0.000004 1.034998 -6.398927 15.751571 0.132994 -1.106146 13.710854 0.026079 -0.492677 6.059317 -0.000002 0.000000 -0.000002 -1.021618 -1.309599 27.147323 0.419640 -1.933734 24.485291 0.026072 -0.492713 6.059788 0.000000 0.000001 0.000002 -2.358793 0.066493 33.052255 0.639914 -2.357949 30.362882 0.026076 -0.492715 6.059859 0.000001 -0.000002 -0.000001 -6.802367 10.955084 2.349006 7.957272 -3.372451 -0.171548 -1.310218 6.128319 -0.139016 -0.060965 -0.000004 0.000000 0.000000 0.000000 -0.000000 -4.434140 0.584897 1.190112 2.424098 -5.307109 0.114078 2.041841 2.806207 -0.796271 -0.388729 0.000000 0.000000 0.000000 0.000000 -0.000000 
-0.150468 209.016785 -0.832275 -0.022899 -2.240359 -0.647877 -0.158930 0.537259 -0.831021 -0.277023 1.038665 -0.320718 0.000000 0.000000 0.000000 -0.283183 1.400320 1.773024 8.355380 0.575458 3.810573 -7.210502 -2.455577 -5.604338 0.000000 0.000000 -0.000000 0.000000 0.000000 -0.000000 0.000000 0.000000 -0.000000 -4.797165 -10.666280 -12.005556 0.000000 0.000000 0.000000 16.444580 -28.384955 -68.578036 -0.000000 -9.438400 0.000015 -11.313320 6.483581 -2.383711 0.452769 4.459433 -20.292885 0.262548 1.735800 -17.200930 0.040838 0.691313 -6.762010 0.000001 0.000001 -0.000001 -2.875528 3.737116 9.044249 12.493031 26.083280 0.661020 -17.653049 -15.118146 3.906025 0.000003 -0.000001 0.000002 0.728479 5.250631 -19.254146 0.233158 1.637905 -16.202508 0.040904 0.691782 -6.766651 -0.000004 -0.000002 0.000002 -1.276995 0.722970 -24.848384 0.401257 2.132653 -21.308500 0.040729 0.690378 -6.752934 -0.000000 0.000000 0.000002 -3.295606 -3.303121 -26.116121 0.440827 2.231387 -22.348070 0.040663 0.689804 -6.747200 0.000000 -0.000004 -0.000000 -2.182948 -0.147485 11.793029 0.000000 0.000000 0.000000 19.604682 39.059974 63.069823 -0.000005 10.872357 0.000007 -14.607316 0.530788 0.052485 1.080062 -5.669968 22.763197 0.293086 -1.627612 20.414518 0.027012 -0.501419 6.167292 0.000002 -0.000001 -0.000000 -6.843756 -4.630922 -19.349748 11.560575 -15.685123 5.687233 -16.607586 12.875659 -16.161030 0.000001 -0.000001 -0.000003 1.042776 -6.405819 15.859703 0.135085 -1.114676 13.818704 0.027001 -0.501390 6.166851 0.000007 -0.000001 -0.000003 -1.023454 -1.320342 27.254451 0.423286 -1.941745 24.593334 0.027010 -0.501419 6.167350 0.000002 0.000003 0.000004 -2.363160 0.053287 33.158690 0.644385 -2.365576 30.471735 0.027018 -0.501435 6.167392 0.000001 0.000001 -0.000001 -6.763903 10.969292 2.364493 7.982874 -3.374714 -0.160644 -1.372766 6.128401 -0.138655 -0.048463 -0.000001 -0.000000 -0.000000 -0.000001 -0.000000 -4.386642 0.562204 1.194984 2.442632 -5.289191 0.139574 1.981055 2.808095 -0.822006 -0.697824 -0.000000 -0.000000 -0.000000 -0.000000 -0.000000 
